<?xml version="1.0" ?><svg xmlns="http://www.w3.org/2000/svg" width="24" height="24" viewBox="0 0 24 24" fill="none"><path d="M5 2C3.34315 2 2 3.34315 2 5V8C2 9.65685 3.34315 11 5 11H5.07089C5.1719 10.2939 5.37829 9.62171 5.67363 9H5C4.44772 9 4 8.55228 4 8V5C4 4.44772 4.44772 4 5 4H8C8.55228 4 9 4.44772 9 5V5.67363C9.62171 5.37829 10.2939 5.1719 11 5.07089V5C11 3.34315 9.65685 2 8 2H5Z" fill="black"/><path d="M18.9291 11H19C20.6569 11 22 9.65685 22 8V5C22 3.34315 20.6569 2 19 2H16C14.3431 2 13 3.34315 13 5V5.07089C13.7061 5.1719 14.3783 5.37829 15 5.67363V5C15 4.44772 15.4477 4 16 4H19C19.5523 4 20 4.44772 20 5V8C20 8.55228 19.5523 9 19 9H18.3264C18.6217 9.62171 18.8281 10.2939 18.9291 11Z" fill="black"/><path d="M5.07089 13H5C3.34315 13 2 14.3431 2 16V19C2 20.6569 3.34315 22 5 22H8C9.65685 22 11 20.6569 11 19V18.9291C10.2939 18.8281 9.62171 18.6217 9 18.3264V19C9 19.5523 8.55228 20 8 20H5C4.44772 20 4 19.5523 4 19V16C4 15.4477 4.44772 15 5 15H5.67363C5.37829 14.3783 5.1719 13.7061 5.07089 13Z" fill="black"/><path fill-rule="evenodd" clip-rule="evenodd" d="M7 12C7 9.23858 9.23858 7 12 7C14.7614 7 17 9.23858 17 12C17 13.0061 16.7029 13.9427 16.1916 14.727L20.669 18.7567C21.0795 19.1262 21.1128 19.7585 20.7433 20.169C20.3738 20.5795 19.7416 20.6128 19.331 20.2433L14.7858 16.1526C13.9897 16.6877 13.0313 17 12 17C9.23858 17 7 14.7614 7 12ZM12 9C10.3431 9 9 10.3431 9 12C9 13.6569 10.3431 15 12 15C13.6569 15 15 13.6569 15 12C15 10.3431 13.6569 9 12 9Z" fill="black"/></svg>